<?xml version="1.0" encoding="UTF-8" standalone="no"?>
<!DOCTYPE svg PUBLIC "-//W3C//DTD SVG 1.1//EN"
 "http://www.w3.org/Graphics/SVG/1.1/DTD/svg11.dtd">
<!-- Generated by graphviz version 3.0.0 (20220226.1711)
 -->
<!-- Pages: 1 -->
<svg width="1082pt" height="404pt"
 viewBox="0.00 0.00 1082.00 404.00" xmlns="http://www.w3.org/2000/svg" xmlns:xlink="http://www.w3.org/1999/xlink">
<g id="graph0" class="graph" transform="scale(1 1) rotate(0) translate(4 400)">
<polygon fill="white" stroke="transparent" points="-4,4 -4,-400 1078,-400 1078,4 -4,4"/>
<!-- [root] provider[&quot;registry.terraform.io/yandex&#45;cloud/yandex&quot;] -->
<g id="node1" class="node">
<title>[root] provider[&quot;registry.terraform.io/yandex&#45;cloud/yandex&quot;]</title>
<polygon fill="none" stroke="black" points="395,-108 106.27,-90 395,-72 683.73,-90 395,-108"/>
<text text-anchor="middle" x="395" y="-86.3" font-family="Times,serif" font-size="14.00">provider[&quot;registry.terraform.io/yandex&#45;cloud/yandex&quot;]</text>
</g>
<!-- [root] var.cloud_id -->
<g id="node2" class="node">
<title>[root] var.cloud_id</title>
<polygon fill="none" stroke="black" points="328,-36 250,-36 250,0 334,0 334,-30 328,-36"/>
<polyline fill="none" stroke="black" points="328,-36 328,-30 "/>
<polyline fill="none" stroke="black" points="334,-30 328,-30 "/>
<text text-anchor="middle" x="292" y="-14.3" font-family="Times,serif" font-size="14.00">var.cloud_id</text>
</g>
<!-- [root] provider[&quot;registry.terraform.io/yandex&#45;cloud/yandex&quot;]&#45;&gt;[root] var.cloud_id -->
<g id="edge2" class="edge">
<title>[root] provider[&quot;registry.terraform.io/yandex&#45;cloud/yandex&quot;]&#45;&gt;[root] var.cloud_id</title>
<path fill="none" stroke="black" d="M371.88,-73.29C358.3,-64.06 340.88,-52.22 325.78,-41.96"/>
<polygon fill="black" stroke="black" points="327.44,-38.85 317.2,-36.13 323.51,-44.64 327.44,-38.85"/>
</g>
<!-- [root] var.folder_id -->
<g id="node5" class="node">
<title>[root] var.folder_id</title>
<polygon fill="none" stroke="black" points="432,-36 352,-36 352,0 438,0 438,-30 432,-36"/>
<polyline fill="none" stroke="black" points="432,-36 432,-30 "/>
<polyline fill="none" stroke="black" points="438,-30 432,-30 "/>
<text text-anchor="middle" x="395" y="-14.3" font-family="Times,serif" font-size="14.00">var.folder_id</text>
</g>
<!-- [root] provider[&quot;registry.terraform.io/yandex&#45;cloud/yandex&quot;]&#45;&gt;[root] var.folder_id -->
<g id="edge3" class="edge">
<title>[root] provider[&quot;registry.terraform.io/yandex&#45;cloud/yandex&quot;]&#45;&gt;[root] var.folder_id</title>
<path fill="none" stroke="black" d="M395,-71.7C395,-63.98 395,-54.71 395,-46.11"/>
<polygon fill="black" stroke="black" points="398.5,-46.1 395,-36.1 391.5,-46.1 398.5,-46.1"/>
</g>
<!-- [root] var.token -->
<g id="node7" class="node">
<title>[root] var.token</title>
<polygon fill="none" stroke="black" points="517.5,-36 456.5,-36 456.5,0 523.5,0 523.5,-30 517.5,-36"/>
<polyline fill="none" stroke="black" points="517.5,-36 517.5,-30 "/>
<polyline fill="none" stroke="black" points="523.5,-30 517.5,-30 "/>
<text text-anchor="middle" x="490" y="-14.3" font-family="Times,serif" font-size="14.00">var.token</text>
</g>
<!-- [root] provider[&quot;registry.terraform.io/yandex&#45;cloud/yandex&quot;]&#45;&gt;[root] var.token -->
<g id="edge4" class="edge">
<title>[root] provider[&quot;registry.terraform.io/yandex&#45;cloud/yandex&quot;]&#45;&gt;[root] var.token</title>
<path fill="none" stroke="black" d="M416.56,-73.12C428.98,-63.96 444.82,-52.29 458.6,-42.14"/>
<polygon fill="black" stroke="black" points="460.89,-44.79 466.87,-36.04 456.74,-39.16 460.89,-44.79"/>
</g>
<!-- [root] var.devvm_image_id -->
<g id="node3" class="node">
<title>[root] var.devvm_image_id</title>
<polygon fill="none" stroke="black" points="828,-108 702,-108 702,-72 834,-72 834,-102 828,-108"/>
<polyline fill="none" stroke="black" points="828,-108 828,-102 "/>
<polyline fill="none" stroke="black" points="834,-102 828,-102 "/>
<text text-anchor="middle" x="768" y="-86.3" font-family="Times,serif" font-size="14.00">var.devvm_image_id</text>
</g>
<!-- [root] var.dns_zone -->
<g id="node4" class="node">
<title>[root] var.dns_zone</title>
<polygon fill="none" stroke="black" points="82,-108 0,-108 0,-72 88,-72 88,-102 82,-108"/>
<polyline fill="none" stroke="black" points="82,-108 82,-102 "/>
<polyline fill="none" stroke="black" points="88,-102 82,-102 "/>
<text text-anchor="middle" x="44" y="-86.3" font-family="Times,serif" font-size="14.00">var.dns_zone</text>
</g>
<!-- [root] var.subnet_id -->
<g id="node6" class="node">
<title>[root] var.subnet_id</title>
<polygon fill="none" stroke="black" points="935.5,-108 852.5,-108 852.5,-72 941.5,-72 941.5,-102 935.5,-108"/>
<polyline fill="none" stroke="black" points="935.5,-108 935.5,-102 "/>
<polyline fill="none" stroke="black" points="941.5,-102 935.5,-102 "/>
<text text-anchor="middle" x="897" y="-86.3" font-family="Times,serif" font-size="14.00">var.subnet_id</text>
</g>
<!-- [root] var.vm_username -->
<g id="node8" class="node">
<title>[root] var.vm_username</title>
<polygon fill="none" stroke="black" points="1068,-108 960,-108 960,-72 1074,-72 1074,-102 1068,-108"/>
<polyline fill="none" stroke="black" points="1068,-108 1068,-102 "/>
<polyline fill="none" stroke="black" points="1074,-102 1068,-102 "/>
<text text-anchor="middle" x="1017" y="-86.3" font-family="Times,serif" font-size="14.00">var.vm_username</text>
</g>
<!-- [root] yandex_compute_instance.dev01 (expand) -->
<g id="node9" class="node">
<title>[root] yandex_compute_instance.dev01 (expand)</title>
<polygon fill="none" stroke="black" points="790.5,-180 593.5,-180 593.5,-144 790.5,-144 790.5,-180"/>
<text text-anchor="middle" x="692" y="-158.3" font-family="Times,serif" font-size="14.00">yandex_compute_instance.dev01</text>
</g>
<!-- [root] yandex_compute_instance.dev01 (expand)&#45;&gt;[root] provider[&quot;registry.terraform.io/yandex&#45;cloud/yandex&quot;] -->
<g id="edge6" class="edge">
<title>[root] yandex_compute_instance.dev01 (expand)&#45;&gt;[root] provider[&quot;registry.terraform.io/yandex&#45;cloud/yandex&quot;]</title>
<path fill="none" stroke="black" d="M619.73,-143.97C571.63,-132.63 508.91,-117.85 461.95,-106.78"/>
<polygon fill="black" stroke="black" points="462.72,-103.37 452.18,-104.48 461.12,-110.18 462.72,-103.37"/>
</g>
<!-- [root] yandex_compute_instance.dev01 (expand)&#45;&gt;[root] var.devvm_image_id -->
<g id="edge7" class="edge">
<title>[root] yandex_compute_instance.dev01 (expand)&#45;&gt;[root] var.devvm_image_id</title>
<path fill="none" stroke="black" d="M710.79,-143.7C720.17,-135.05 731.68,-124.45 741.91,-115.03"/>
<polygon fill="black" stroke="black" points="744.45,-117.45 749.43,-108.1 739.7,-112.3 744.45,-117.45"/>
</g>
<!-- [root] yandex_compute_instance.dev01 (expand)&#45;&gt;[root] var.dns_zone -->
<g id="edge8" class="edge">
<title>[root] yandex_compute_instance.dev01 (expand)&#45;&gt;[root] var.dns_zone</title>
<path fill="none" stroke="black" d="M593.17,-151.78C565.61,-149.23 535.64,-146.49 508,-144 328.58,-127.85 278.5,-143.65 97.87,-107.91"/>
<polygon fill="black" stroke="black" points="98.54,-104.47 88.05,-105.94 97.17,-111.34 98.54,-104.47"/>
</g>
<!-- [root] yandex_compute_instance.dev01 (expand)&#45;&gt;[root] var.subnet_id -->
<g id="edge9" class="edge">
<title>[root] yandex_compute_instance.dev01 (expand)&#45;&gt;[root] var.subnet_id</title>
<path fill="none" stroke="black" d="M741.89,-143.97C772.37,-133.56 811.36,-120.24 842.62,-109.57"/>
<polygon fill="black" stroke="black" points="844.15,-112.74 852.48,-106.2 841.89,-106.12 844.15,-112.74"/>
</g>
<!-- [root] yandex_compute_instance.dev01 (expand)&#45;&gt;[root] var.vm_username -->
<g id="edge10" class="edge">
<title>[root] yandex_compute_instance.dev01 (expand)&#45;&gt;[root] var.vm_username</title>
<path fill="none" stroke="black" d="M780.94,-143.95C828.49,-134.56 888.23,-122.33 949.89,-108.2"/>
<polygon fill="black" stroke="black" points="950.85,-111.57 959.81,-105.92 949.28,-104.75 950.85,-111.57"/>
</g>
<!-- [root] yandex_dns_recordset.dev01_dns01 (expand) -->
<g id="node10" class="node">
<title>[root] yandex_dns_recordset.dev01_dns01 (expand)</title>
<polygon fill="none" stroke="black" points="611.5,-252 398.5,-252 398.5,-216 611.5,-216 611.5,-252"/>
<text text-anchor="middle" x="505" y="-230.3" font-family="Times,serif" font-size="14.00">yandex_dns_recordset.dev01_dns01</text>
</g>
<!-- [root] yandex_dns_recordset.dev01_dns01 (expand)&#45;&gt;[root] yandex_compute_instance.dev01 (expand) -->
<g id="edge11" class="edge">
<title>[root] yandex_dns_recordset.dev01_dns01 (expand)&#45;&gt;[root] yandex_compute_instance.dev01 (expand)</title>
<path fill="none" stroke="black" d="M550.75,-215.88C576.76,-206.14 609.53,-193.87 636.95,-183.61"/>
<polygon fill="black" stroke="black" points="638.26,-186.85 646.4,-180.07 635.81,-180.3 638.26,-186.85"/>
</g>
<!-- [root] yandex_dns_zone.dns_zone_public (expand) -->
<g id="node11" class="node">
<title>[root] yandex_dns_zone.dns_zone_public (expand)</title>
<polygon fill="none" stroke="black" points="499.5,-180 290.5,-180 290.5,-144 499.5,-144 499.5,-180"/>
<text text-anchor="middle" x="395" y="-158.3" font-family="Times,serif" font-size="14.00">yandex_dns_zone.dns_zone_public</text>
</g>
<!-- [root] yandex_dns_recordset.dev01_dns01 (expand)&#45;&gt;[root] yandex_dns_zone.dns_zone_public (expand) -->
<g id="edge12" class="edge">
<title>[root] yandex_dns_recordset.dev01_dns01 (expand)&#45;&gt;[root] yandex_dns_zone.dns_zone_public (expand)</title>
<path fill="none" stroke="black" d="M478.09,-215.88C463.84,-206.81 446.15,-195.55 430.76,-185.76"/>
<polygon fill="black" stroke="black" points="432.33,-182.61 422.01,-180.19 428.57,-188.51 432.33,-182.61"/>
</g>
<!-- [root] yandex_dns_zone.dns_zone_public (expand)&#45;&gt;[root] provider[&quot;registry.terraform.io/yandex&#45;cloud/yandex&quot;] -->
<g id="edge13" class="edge">
<title>[root] yandex_dns_zone.dns_zone_public (expand)&#45;&gt;[root] provider[&quot;registry.terraform.io/yandex&#45;cloud/yandex&quot;]</title>
<path fill="none" stroke="black" d="M395,-143.7C395,-135.98 395,-126.71 395,-118.11"/>
<polygon fill="black" stroke="black" points="398.5,-118.1 395,-108.1 391.5,-118.1 398.5,-118.1"/>
</g>
<!-- [root] yandex_dns_zone.dns_zone_public (expand)&#45;&gt;[root] var.dns_zone -->
<g id="edge14" class="edge">
<title>[root] yandex_dns_zone.dns_zone_public (expand)&#45;&gt;[root] var.dns_zone</title>
<path fill="none" stroke="black" d="M290.5,-145.94C235.59,-137.18 167.1,-124.94 97.89,-108.06"/>
<polygon fill="black" stroke="black" points="98.67,-104.64 88.12,-105.64 96.99,-111.44 98.67,-104.64"/>
</g>
<!-- [root] provider[&quot;registry.terraform.io/yandex&#45;cloud/yandex&quot;] (close) -->
<g id="node12" class="node">
<title>[root] provider[&quot;registry.terraform.io/yandex&#45;cloud/yandex&quot;] (close)</title>
<ellipse fill="none" stroke="black" cx="505" cy="-306" rx="252.66" ry="18"/>
<text text-anchor="middle" x="505" y="-302.3" font-family="Times,serif" font-size="14.00">[root] provider[&quot;registry.terraform.io/yandex&#45;cloud/yandex&quot;] (close)</text>
</g>
<!-- [root] provider[&quot;registry.terraform.io/yandex&#45;cloud/yandex&quot;] (close)&#45;&gt;[root] yandex_dns_recordset.dev01_dns01 (expand) -->
<g id="edge1" class="edge">
<title>[root] provider[&quot;registry.terraform.io/yandex&#45;cloud/yandex&quot;] (close)&#45;&gt;[root] yandex_dns_recordset.dev01_dns01 (expand)</title>
<path fill="none" stroke="black" d="M505,-287.7C505,-279.98 505,-270.71 505,-262.11"/>
<polygon fill="black" stroke="black" points="508.5,-262.1 505,-252.1 501.5,-262.1 508.5,-262.1"/>
</g>
<!-- [root] root -->
<g id="node13" class="node">
<title>[root] root</title>
<ellipse fill="none" stroke="black" cx="505" cy="-378" rx="47.39" ry="18"/>
<text text-anchor="middle" x="505" y="-374.3" font-family="Times,serif" font-size="14.00">[root] root</text>
</g>
<!-- [root] root&#45;&gt;[root] provider[&quot;registry.terraform.io/yandex&#45;cloud/yandex&quot;] (close) -->
<g id="edge5" class="edge">
<title>[root] root&#45;&gt;[root] provider[&quot;registry.terraform.io/yandex&#45;cloud/yandex&quot;] (close)</title>
<path fill="none" stroke="black" d="M505,-359.7C505,-351.98 505,-342.71 505,-334.11"/>
<polygon fill="black" stroke="black" points="508.5,-334.1 505,-324.1 501.5,-334.1 508.5,-334.1"/>
</g>
</g>
</svg>
